<svg width="53" height="53" viewBox="0 0 53 53" fill="none" xmlns="http://www.w3.org/2000/svg">
<path fill-rule="evenodd" clip-rule="evenodd" d="M27.3584 0.350385C26.8815 -0.116795 26.1185 -0.116795 25.6416 0.350385L18.8993 6.95414C18.6732 7.17566 18.3701 7.30118 18.0536 7.30446L8.61645 7.40241C7.94884 7.40933 7.40934 7.94884 7.40241 8.61644L7.30447 18.0535C7.30118 18.3701 7.17566 18.6731 6.95416 18.8993L0.350376 25.6415C-0.116792 26.1185 -0.116792 26.8815 0.350376 27.3585L6.95416 34.1007C7.17566 34.3269 7.30118 34.6299 7.30447 34.9465L7.40241 44.3836C7.40934 45.0512 7.94884 45.5906 8.61645 45.5976L18.0536 45.6955C18.3701 45.6988 18.6732 45.8243 18.8993 46.0458L25.6416 52.6496C26.1185 53.1168 26.8815 53.1168 27.3584 52.6496L34.1008 46.0458C34.3269 45.8243 34.6299 45.6988 34.9464 45.6955L44.3835 45.5976C45.0512 45.5906 45.5908 45.0512 45.5976 44.3836L45.6955 34.9465C45.6988 34.6299 45.8243 34.3269 46.0459 34.1007L52.6496 27.3585C53.1168 26.8815 53.1168 26.1185 52.6496 25.6415L46.0459 18.8993C45.8243 18.6731 45.6988 18.3701 45.6955 18.0535L45.5976 8.61644C45.5908 7.94884 45.0512 7.40933 44.3835 7.40241L34.9464 7.30446C34.6299 7.30118 34.3269 7.17566 34.1008 6.95416L27.3584 0.350385ZM20.366 24.0463C22.3987 24.0463 24.0465 22.3985 24.0465 20.3657C24.0465 18.3331 22.3987 16.6852 20.366 16.6852C18.3332 16.6852 16.6854 18.3331 16.6854 20.3657C16.6854 22.3985 18.3332 24.0463 20.366 24.0463ZM36.3149 32.6341C36.3149 34.6669 34.6671 36.3146 32.6343 36.3146C30.6016 36.3146 28.9538 34.6669 28.9538 32.6341C28.9538 30.6015 30.6016 28.9536 32.6343 28.9536C34.6671 28.9536 36.3149 30.6015 36.3149 32.6341ZM19.2137 36.3891L36.3895 19.2134L33.787 16.6109L16.6112 33.7866L19.2137 36.3891Z" fill="#324558"/>
</svg>
