<svg width="55" height="55" viewBox="0 0 55 55" fill="none" xmlns="http://www.w3.org/2000/svg">
<path fill-rule="evenodd" clip-rule="evenodd" d="M28.3908 0.363607C27.8958 -0.121202 27.1041 -0.121202 26.6092 0.363607L19.6124 7.21657C19.3778 7.44644 19.0633 7.5767 18.7349 7.5801L8.9416 7.68174C8.2488 7.68892 7.68894 8.2488 7.68174 8.94159L7.58011 18.7348C7.5767 19.0633 7.44644 19.3777 7.21658 19.6125L0.363598 26.6091C-0.121199 27.1041 -0.121199 27.8959 0.363598 28.3909L7.21658 35.3875C7.44644 35.6223 7.5767 35.9367 7.58011 36.2652L7.68174 46.0584C7.68894 46.7512 8.2488 47.311 8.9416 47.3183L18.7349 47.4199C19.0633 47.4233 19.3778 47.5536 19.6124 47.7834L26.6092 54.6364C27.1041 55.1212 27.8958 55.1212 28.3908 54.6364L35.3876 47.7834C35.6222 47.5536 35.9367 47.4233 36.2652 47.4199L46.0584 47.3183C46.7512 47.311 47.3112 46.7512 47.3183 46.0584L47.4199 36.2652C47.4233 35.9367 47.5536 35.6223 47.7835 35.3875L54.6364 28.3909C55.1212 27.8959 55.1212 27.1041 54.6364 26.6091L47.7835 19.6125C47.5536 19.3777 47.4233 19.0633 47.4199 18.7348L47.3183 8.94159C47.3112 8.2488 46.7512 7.68892 46.0584 7.68174L36.2652 7.5801C35.9367 7.5767 35.6222 7.44644 35.3876 7.21658L28.3908 0.363607ZM27.5003 40.6435L16.6574 19.8611H22.4014L27.5003 29.6342L32.5993 19.8611H38.3433L27.5003 40.6435Z" fill="#324558"/>
</svg>
